{
   "accessors" : [
      {
         "bufferView" : 0,
         "byteOffset" : 0,
         "componentType" : 5123,
         "count" : 552,
         "max" : [ 291 ],
         "min" : [ 0 ],
         "name" : "buffer-0-group-0-mesh-0-indices",
         "type" : "SCALAR"
      },
      {
         "bufferView" : 1,
         "byteOffset" : 0,
         "componentType" : 5126,
         "count" : 292,
         "max" : [ 29.11380004882812, 29.31489944458008, 9.850130081176758 ],
         "min" : [ -37.9093017578125, 3.019090037107049e-14, -29.29789924621582 ],
         "name" : "buffer-0-group-0-mesh-0-position",
         "type" : "VEC3"
      },
      {
         "bufferView" : 1,
         "byteOffset" : 3504,
         "componentType" : 5126,
         "count" : 292,
         "max" : [ 1, 1, 1 ],
         "min" : [ -1, -1, -1 ],
         "name" : "buffer-0-group-0-mesh-0-normal",
         "type" : "VEC3"
      },
      {
         "bufferView" : 2,
         "byteOffset" : 0,
         "componentType" : 5126,
         "count" : 292,
         "max" : [ 73.76059722900391, 5.697190190044523e-15 ],
         "min" : [ -74.30599975585938, -39.14810180664062 ],
         "name" : "buffer-0-group-0-mesh-0-texcoord",
         "type" : "VEC2"
      },
      {
         "bufferView" : 0,
         "byteOffset" : 1104,
         "componentType" : 5123,
         "count" : 11268,
         "max" : [ 5615 ],
         "min" : [ 0 ],
         "name" : "buffer-0-group-1-mesh-0-indices",
         "type" : "SCALAR"
      },
      {
         "bufferView" : 1,
         "byteOffset" : 7008,
         "componentType" : 5126,
         "count" : 5616,
         "max" : [ 50.71820068359375, 40.84820175170898, 30.31570053100586 ],
         "min" : [ -59.4390983581543, 2.842169926600864e-14, -52.02920150756836 ],
         "name" : "buffer-0-group-1-mesh-0-position",
         "type" : "VEC3"
      },
      {
         "bufferView" : 1,
         "byteOffset" : 74400,
         "componentType" : 5126,
         "count" : 5616,
         "max" : [ 1, 1, 1 ],
         "min" : [ -1, -1, -1 ],
         "name" : "buffer-0-group-1-mesh-0-normal",
         "type" : "VEC3"
      },
      {
         "bufferView" : 2,
         "byteOffset" : 2336,
         "componentType" : 5126,
         "count" : 5616,
         "max" : [ 21.01420021057129, 17.36090087890625 ],
         "min" : [ -22.34250068664551, -41.92129898071289 ],
         "name" : "buffer-0-group-1-mesh-0-texcoord",
         "type" : "VEC2"
      },
      {
         "bufferView" : 0,
         "byteOffset" : 23640,
         "componentType" : 5123,
         "count" : 468,
         "max" : [ 215 ],
         "min" : [ 0 ],
         "name" : "buffer-0-group-2-mesh-0-indices",
         "type" : "SCALAR"
      },
      {
         "bufferView" : 1,
         "byteOffset" : 141792,
         "componentType" : 5126,
         "count" : 216,
         "max" : [ 47.5088996887207, 20.02910041809082, 27.10630035400391 ],
         "min" : [ -56.22980117797852, 19.52910041809082, -48.81980133056641 ],
         "name" : "buffer-0-group-2-mesh-0-position",
         "type" : "VEC3"
      },
      {
         "bufferView" : 1,
         "byteOffset" : 144384,
         "componentType" : 5126,
         "count" : 216,
         "max" : [ 0.1128239631652832, 1, 0.1128239631652832 ],
         "min" : [ -0.1128239631652832, 0.9871886968612671, -0.1128239631652832 ],
         "name" : "buffer-0-group-2-mesh-0-normal",
         "type" : "VEC3"
      },
      {
         "bufferView" : 2,
         "byteOffset" : 47264,
         "componentType" : 5126,
         "count" : 216,
         "max" : [ 18.8125, 10.92490005493164 ],
         "min" : [ -18.40180015563965, -18.01049995422363 ],
         "name" : "buffer-0-group-2-mesh-0-texcoord",
         "type" : "VEC2"
      },
      {
         "bufferView" : 0,
         "byteOffset" : 24576,
         "componentType" : 5123,
         "count" : 84,
         "max" : [ 47 ],
         "min" : [ 0 ],
         "name" : "buffer-0-group-3-mesh-0-indices",
         "type" : "SCALAR"
      },
      {
         "bufferView" : 1,
         "byteOffset" : 146976,
         "componentType" : 5126,
         "count" : 48,
         "max" : [ 32.59469985961914, 30.31489944458008, 13.41769981384277 ],
         "min" : [ -41.52230072021484, 29.43989944458008, -32.76179885864258 ],
         "name" : "buffer-0-group-3-mesh-0-position",
         "type" : "VEC3"
      },
      {
         "bufferView" : 1,
         "byteOffset" : 147552,
         "componentType" : 5126,
         "count" : 48,
         "max" : [ 1, 1, 1 ],
         "min" : [ -1, -1, -1 ],
         "name" : "buffer-0-group-3-mesh-0-normal",
         "type" : "VEC3"
      },
      {
         "bufferView" : 2,
         "byteOffset" : 48992,
         "componentType" : 5126,
         "count" : 48,
         "max" : [ 74.11699676513672, 0 ],
         "min" : [ -74.11699676513672, -46.17950057983398 ],
         "name" : "buffer-0-group-3-mesh-0-texcoord",
         "type" : "VEC2"
      }
   ],
   "asset" : {
      "extras" : {
         "GOOGLE_processor_version" : 294144208
      },
      "generator" : "Obj2GltfConverter",
      "version" : "2.0"
   },
   "bufferViews" : [
      {
         "buffer" : 0,
         "byteLength" : 24744,
         "byteOffset" : 0,
         "name" : "buffer-0-bufferview-ushort",
         "target" : 34963
      },
      {
         "buffer" : 0,
         "byteLength" : 148128,
         "byteOffset" : 24744,
         "byteStride" : 12,
         "name" : "buffer-0-bufferview-vec3",
         "target" : 34962
      },
      {
         "buffer" : 0,
         "byteLength" : 49376,
         "byteOffset" : 172872,
         "byteStride" : 8,
         "name" : "buffer-0-bufferview-vec2",
         "target" : 34962
      }
   ],
   "buffers" : [
      {
         "byteLength" : 222248,
         "name" : "buffer-0",
         "uri" : "Table Chairs.bin"
      }
   ],
   "cameras" : [
      {
         "perspective" : {
            "yfov" : 0.7853981633974483,
            "znear" : 0.1000000014901161
         },
         "type" : "perspective"
      }
   ],
   "extensions" : {
      "KHR_lights_punctual" : {
         "lights" : [
            {
               "color" : [ 1, 0.9333333333333333, 0.8666666666666667 ],
               "intensity" : 0.25,
               "name" : "headLight",
               "type" : "directional"
            },
            {
               "color" : [ 1, 0.9333333333333333, 0.8666666666666667 ],
               "intensity" : 0.324999988079071,
               "name" : "keyLight",
               "type" : "directional"
            }
         ]
      }
   },
   "extensionsUsed" : [ "GOOGLE_backgrounds", "GOOGLE_camera_settings", "KHR_lights_punctual" ],
   "extras" : {
      "GOOGLE_initial_camera_motion" : {
         "motionPath" : "FULL_ROTATION"
      },
      "GOOGLE_lighting_rig" : {
         "disableShadows" : false
      }
   },
   "materials" : [
      {
         "alphaMode" : "OPAQUE",
         "doubleSided" : true,
         "extras" : {
            "__iag_" : true
         },
         "name" : "_Gainsboro_",
         "pbrMetallicRoughness" : {
            "baseColorFactor" : [ 0.744328935025, 0.744328935025, 0.744328935025, 1 ],
            "metallicFactor" : 0,
            "roughnessFactor" : 0.9699476628648295
         }
      },
      {
         "alphaMode" : "BLEND",
         "doubleSided" : true,
         "extras" : {
            "__iag_" : true
         },
         "name" : "_Gray_Glass_",
         "pbrMetallicRoughness" : {
            "baseColorFactor" : [ 0.251964845521, 0.251964845521, 0.251964845521, 0.5 ],
            "metallicFactor" : 0,
            "roughnessFactor" : 0.9699476628648295
         }
      },
      {
         "alphaMode" : "OPAQUE",
         "doubleSided" : true,
         "extras" : {
            "__iag_" : true
         },
         "name" : "_BurlyWood_",
         "pbrMetallicRoughness" : {
            "baseColorFactor" : [ 0.757923465744, 0.5206618217610001, 0.280277065744, 1 ],
            "metallicFactor" : 0,
            "roughnessFactor" : 0.9699476628648295
         }
      },
      {
         "alphaMode" : "OPAQUE",
         "doubleSided" : true,
         "extras" : {
            "__iag_" : true
         },
         "name" : "_WarmGray6_",
         "pbrMetallicRoughness" : {
            "baseColorFactor" : [ 0.263913375625, 0.196370400769, 0.16, 1 ],
            "metallicFactor" : 0,
            "roughnessFactor" : 0.9699476628648295
         }
      }
   ],
   "meshes" : [
      {
         "name" : "buffer-0-mesh-0",
         "primitives" : [
            {
               "attributes" : {
                  "NORMAL" : 2,
                  "POSITION" : 1,
                  "TEXCOORD_0" : 3
               },
               "indices" : 0,
               "material" : 0,
               "mode" : 4
            },
            {
               "attributes" : {
                  "NORMAL" : 6,
                  "POSITION" : 5,
                  "TEXCOORD_0" : 7
               },
               "indices" : 4,
               "material" : 2,
               "mode" : 4
            },
            {
               "attributes" : {
                  "NORMAL" : 10,
                  "POSITION" : 9,
                  "TEXCOORD_0" : 11
               },
               "indices" : 8,
               "material" : 3,
               "mode" : 4
            },
            {
               "attributes" : {
                  "NORMAL" : 14,
                  "POSITION" : 13,
                  "TEXCOORD_0" : 15
               },
               "indices" : 12,
               "material" : 1,
               "mode" : 4
            }
         ]
      }
   ],
   "nodes" : [
      {
         "mesh" : 0,
         "name" : "node-0"
      },
      {
         "children" : [ 2 ]
      },
      {
         "children" : [ 3 ],
         "extras" : {
            "isTransformNode" : 1
         },
         "translation" : [ -4.123251516242584, 21.7122723831341, -10.05675391625452 ]
      },
      {
         "children" : [ 0 ],
         "translation" : [ 4.123251516242584, -21.7122723831341, 10.05675391625452 ]
      },
      {
         "camera" : 0,
         "children" : [ 5 ],
         "rotation" : [
            -0.2103130930965366,
            0.330533600617554,
            0.07581301236818647,
            0.9169342009602565
         ],
         "translation" : [ 74.86856554593211, 72.10538000011381, 81.42712828000907 ]
      },
      {
         "extensions" : {
            "KHR_lights_punctual" : {
               "light" : 0
            }
         },
         "extras" : {
            "isHeadLight" : 1
         },
         "name" : "headLightNode",
         "translation" : [ -66.09547496114229, 33.04773748057114, 33.04773748057114 ]
      },
      {
         "extensions" : {
            "KHR_lights_punctual" : {
               "light" : 1
            }
         },
         "extras" : {
            "isKeyLight" : 1
         },
         "name" : "keyLightNode",
         "rotation" : [ -0.7505326882858236, -0.3752663441429118, 0, 0.5439447166468927 ],
         "scale" : [ 0, 0, 66.75642971075371 ],
         "translation" : [ -70.80303602645797, 158.733674007734, -76.96809177309187 ]
      }
   ],
   "scene" : 0,
   "scenes" : [
      {
         "extensions" : {
            "GOOGLE_backgrounds" : {
               "color" : [ 0.2156862745098039, 0.2784313725490196, 0.3098039215686275 ]
            },
            "GOOGLE_camera_settings" : {
               "pivot" : [ 0, 0, 0 ]
            }
         },
         "extras" : {
            "GOOGLE_camera_index" : {
               "cameraIndex" : 0,
               "nodeIndex" : 4
            },
            "GOOGLE_geometry_data" : {
               "stats" : {
                  "centroid" : [ -4.046606315704267, 25.22081458622654, -10.21166206233817 ],
                  "radius" : 66.09547496114229,
                  "stdev" : 43.71093864208697
               },
               "visualCenterPoint" : [ -4.123251516242584, 21.7122723831341, -10.05675391625452 ]
            },
            "GOOGLE_hemi_light" : {
               "groundColor" : [ 0.2156862745098039, 0.2784313725490196, 0.3098039215686275 ]
            }
         },
         "name" : "scene-0",
         "nodes" : [ 1, 4, 6 ]
      }
   ]
}
